<?xml version="1.0" encoding="utf-8"?>
<!-- Generator: Adobe Illustrator 19.2.0, SVG Export Plug-In . SVG Version: 6.00 Build 0)  -->
<svg version="1.1" id="Layer_1" xmlns="http://www.w3.org/2000/svg" xmlns:xlink="http://www.w3.org/1999/xlink" x="0px" y="0px"
	 viewBox="0 0 100 100" style="enable-background:new 0 0 100 100;" xml:space="preserve">
<style type="text/css">
	.st0{fill:#DBDDDE;}
</style>
<g>
	<g>
		<path class="st0" d="M27.1,21.5c2.8-2.8,8.1-5,12-5h53c3.9,0,7,3.1,7,7v53c0,3.9-3.1,7-7,7h-53c-3.9,0-9.3-2.2-12-5L3.5,55
			c-2.8-2.8-2.8-7.2,0-10L27.1,21.5z M58.1,52.5L48,62.6c-1.4,1.4-1.4,3.6,0,5c1.4,1.4,3.6,1.4,5,0l10.1-10.1c1.4-1.4,3.6-1.4,5,0
			l10.1,10.1c1.4,1.4,3.6,1.4,5,0c1.4-1.4,1.4-3.6,0-5L73.1,52.5c-1.4-1.4-1.4-3.6,0-5l10.1-10.1c1.4-1.4,1.4-3.6,0-5
			c-1.4-1.4-3.6-1.4-5,0L68.1,42.5c-1.4,1.4-3.6,1.4-5,0L53,32.4c-1.4-1.4-3.6-1.4-5,0c-1.4,1.4-1.4,3.6,0,5l10.1,10.1
			C59.5,48.9,59.5,51.1,58.1,52.5z"/>
	</g>
</g>
</svg>
