<?xml version="1.0" encoding="utf-8"?>
<!-- Generator: Adobe Illustrator 19.2.0, SVG Export Plug-In . SVG Version: 6.00 Build 0)  -->
<svg version="1.1" id="Layer_1" xmlns="http://www.w3.org/2000/svg" xmlns:xlink="http://www.w3.org/1999/xlink" x="0px" y="0px"
	 viewBox="0 0 100 100" style="enable-background:new 0 0 100 100;" xml:space="preserve">
<style type="text/css">
	.st0{fill:#DBDDDE;}
</style>
<g>
	<path class="st0" d="M1.5,16.5v37.6C1.5,60.1,6.4,65,12.4,65h75.3c5.9,0,10.9-4.9,10.9-10.9V16.5c0-5.9-4.9-10.9-10.9-10.9H12.4
		C6.4,5.7,1.5,10.6,1.5,16.5z M74.6,16.5h11.6v7.2H74.6V16.5z M74.6,32.4h11.6v7.2H74.6V32.4z M54.3,16.5h11.6v7.2H54.3V16.5z
		 M54.3,32.4h11.6v7.2H54.3V32.4z M34.1,16.5h11.6v7.2H34.1V16.5z M34.1,32.4h11.6v7.2H34.1V32.4z M31.9,48.4h39.2v7.2H31.9V48.4z
		 M13.8,16.5h11.6v7.2H13.8V16.5z M13.8,32.4h11.6v7.2H13.8V32.4z"/>
</g>
<polygon class="st0" points="50,95.6 32.7,75.1 67.3,75.1 "/>
</svg>
