<?xml version="1.0" encoding="utf-8"?>
<!-- Generator: Adobe Illustrator 19.2.0, SVG Export Plug-In . SVG Version: 6.00 Build 0)  -->
<svg version="1.1" id="Layer_1" xmlns="http://www.w3.org/2000/svg" xmlns:xlink="http://www.w3.org/1999/xlink" x="0px" y="0px"
	 viewBox="0 0 100 100" style="enable-background:new 0 0 100 100;" xml:space="preserve">
<style type="text/css">
	.st0{fill:#FFFFFF;}
</style>
<path class="st0" d="M92.2,13c-3.3,0-6,2.7-6,6v30.2H22.3l13.8-13.8c2.4-2.4,2.4-6.2,0-8.5c-2.4-2.4-6.2-2.4-8.5,0L3.5,51
	c-0.3,0.3-0.5,0.6-0.8,0.9c0,0,0,0,0,0.1c-0.2,0.3-0.4,0.6-0.5,1c0,0,0,0.1,0,0.1c-0.1,0.3-0.2,0.7-0.3,1c0,0,0,0.1,0,0.1
	c-0.1,0.3-0.1,0.7-0.1,1c0,0,0,0,0,0.1c0,0.4,0,0.7,0.1,1.1c0,0,0,0.1,0,0.1c0.1,0.4,0.2,0.7,0.3,1c0,0,0,0.1,0,0.1
	c0.1,0.3,0.3,0.7,0.5,1c0,0,0,0,0,0c0.2,0.3,0.5,0.7,0.8,1l24.1,24.1c1.2,1.2,2.7,1.8,4.3,1.8s3.1-0.6,4.3-1.8
	c2.4-2.4,2.4-6.2,0-8.5L22.3,61.3h69.9c3.3,0,6-2.7,6-6V19.1C98.2,15.7,95.5,13,92.2,13z"/>
</svg>
